<mxfile host="app.diagrams.net" modified="2022-08-16T15:02:06.346Z" agent="5.0 (Windows NT 6.1; Win64; x64) AppleWebKit/537.36 (KHTML, like Gecko) Chrome/104.0.0.0 Safari/537.36" etag="VwR4vKGk1X0rnr7C7DsD" version="20.2.4" type="github">
  <diagram id="kgpKYQtTHZ0yAKxKKP6v" name="Page-1">
    <mxGraphModel dx="1605" dy="1491" grid="1" gridSize="10" guides="1" tooltips="1" connect="1" arrows="1" fold="1" page="1" pageScale="1" pageWidth="850" pageHeight="1100" math="0" shadow="0">
      <root>
        <mxCell id="0" />
        <mxCell id="1" parent="0" />
        <mxCell id="rBN6wQHvt3Dz5fo0-YgQ-102" value="app" style="shape=umlLifeline;perimeter=lifelinePerimeter;whiteSpace=wrap;html=1;container=1;collapsible=0;recursiveResize=0;outlineConnect=0;" vertex="1" parent="1">
          <mxGeometry x="190" y="-300" width="110" height="2460" as="geometry" />
        </mxCell>
        <mxCell id="rBN6wQHvt3Dz5fo0-YgQ-103" value="" style="html=1;points=[];perimeter=orthogonalPerimeter;" vertex="1" parent="rBN6wQHvt3Dz5fo0-YgQ-102">
          <mxGeometry x="45" y="90" width="10" height="820" as="geometry" />
        </mxCell>
        <mxCell id="rBN6wQHvt3Dz5fo0-YgQ-104" value="" style="html=1;points=[];perimeter=orthogonalPerimeter;" vertex="1" parent="rBN6wQHvt3Dz5fo0-YgQ-102">
          <mxGeometry x="45" y="1010" width="10" height="1080" as="geometry" />
        </mxCell>
        <mxCell id="rBN6wQHvt3Dz5fo0-YgQ-106" value="" style="html=1;points=[];perimeter=orthogonalPerimeter;" vertex="1" parent="rBN6wQHvt3Dz5fo0-YgQ-102">
          <mxGeometry x="50" y="160" width="10" height="40" as="geometry" />
        </mxCell>
        <mxCell id="rBN6wQHvt3Dz5fo0-YgQ-107" value="单张照片人脸识别，选取最大人脸" style="edgeStyle=orthogonalEdgeStyle;html=1;align=left;spacingLeft=2;endArrow=block;rounded=0;entryX=1;entryY=0;" edge="1" parent="rBN6wQHvt3Dz5fo0-YgQ-102">
          <mxGeometry relative="1" as="geometry">
            <mxPoint x="55" y="154" as="sourcePoint" />
            <Array as="points">
              <mxPoint x="85" y="154" />
            </Array>
            <mxPoint x="60" y="174" as="targetPoint" />
          </mxGeometry>
        </mxCell>
        <mxCell id="rBN6wQHvt3Dz5fo0-YgQ-108" value="" style="html=1;points=[];perimeter=orthogonalPerimeter;" vertex="1" parent="rBN6wQHvt3Dz5fo0-YgQ-102">
          <mxGeometry x="45" y="1838" width="10" height="130" as="geometry" />
        </mxCell>
        <mxCell id="rBN6wQHvt3Dz5fo0-YgQ-109" value="" style="html=1;points=[];perimeter=orthogonalPerimeter;" vertex="1" parent="rBN6wQHvt3Dz5fo0-YgQ-102">
          <mxGeometry x="50" y="235" width="10" height="40" as="geometry" />
        </mxCell>
        <mxCell id="rBN6wQHvt3Dz5fo0-YgQ-110" value="拼图合成" style="edgeStyle=orthogonalEdgeStyle;html=1;align=left;spacingLeft=2;endArrow=block;rounded=0;entryX=1;entryY=0;" edge="1" parent="rBN6wQHvt3Dz5fo0-YgQ-102" target="rBN6wQHvt3Dz5fo0-YgQ-109">
          <mxGeometry relative="1" as="geometry">
            <mxPoint x="55" y="215" as="sourcePoint" />
            <Array as="points">
              <mxPoint x="85" y="215" />
            </Array>
          </mxGeometry>
        </mxCell>
        <mxCell id="rBN6wQHvt3Dz5fo0-YgQ-111" value="" style="html=1;points=[];perimeter=orthogonalPerimeter;" vertex="1" parent="rBN6wQHvt3Dz5fo0-YgQ-102">
          <mxGeometry x="50" y="310" width="10" height="40" as="geometry" />
        </mxCell>
        <mxCell id="rBN6wQHvt3Dz5fo0-YgQ-112" value="拼图后人脸识别" style="edgeStyle=orthogonalEdgeStyle;html=1;align=left;spacingLeft=2;endArrow=block;rounded=0;entryX=1;entryY=0;" edge="1" parent="rBN6wQHvt3Dz5fo0-YgQ-102" target="rBN6wQHvt3Dz5fo0-YgQ-111">
          <mxGeometry relative="1" as="geometry">
            <mxPoint x="55" y="290" as="sourcePoint" />
            <Array as="points">
              <mxPoint x="85" y="290" />
            </Array>
          </mxGeometry>
        </mxCell>
        <mxCell id="rBN6wQHvt3Dz5fo0-YgQ-113" value="" style="html=1;points=[];perimeter=orthogonalPerimeter;" vertex="1" parent="rBN6wQHvt3Dz5fo0-YgQ-102">
          <mxGeometry x="45" y="1998" width="10" height="80" as="geometry" />
        </mxCell>
        <mxCell id="rBN6wQHvt3Dz5fo0-YgQ-212" value="服务端接口耗时23ms" style="shape=note2;boundedLbl=1;whiteSpace=wrap;html=1;size=25;verticalAlign=top;align=center;fillColor=#ffe6cc;strokeColor=#d79b00;" vertex="1" parent="rBN6wQHvt3Dz5fo0-YgQ-102">
          <mxGeometry x="90" y="680" width="120" height="60" as="geometry" />
        </mxCell>
        <mxCell id="rBN6wQHvt3Dz5fo0-YgQ-114" value="server" style="shape=umlLifeline;perimeter=lifelinePerimeter;whiteSpace=wrap;html=1;container=1;collapsible=0;recursiveResize=0;outlineConnect=0;" vertex="1" parent="1">
          <mxGeometry x="400" y="80" width="100" height="2130" as="geometry" />
        </mxCell>
        <mxCell id="rBN6wQHvt3Dz5fo0-YgQ-115" value="" style="html=1;points=[];perimeter=orthogonalPerimeter;" vertex="1" parent="rBN6wQHvt3Dz5fo0-YgQ-114">
          <mxGeometry x="45" y="70" width="10" height="450" as="geometry" />
        </mxCell>
        <mxCell id="rBN6wQHvt3Dz5fo0-YgQ-116" value="" style="html=1;points=[];perimeter=orthogonalPerimeter;" vertex="1" parent="rBN6wQHvt3Dz5fo0-YgQ-114">
          <mxGeometry x="45" y="660" width="10" height="540" as="geometry" />
        </mxCell>
        <mxCell id="rBN6wQHvt3Dz5fo0-YgQ-117" value="" style="html=1;points=[];perimeter=orthogonalPerimeter;" vertex="1" parent="rBN6wQHvt3Dz5fo0-YgQ-114">
          <mxGeometry x="45" y="1488" width="10" height="40" as="geometry" />
        </mxCell>
        <mxCell id="rBN6wQHvt3Dz5fo0-YgQ-118" value="" style="html=1;points=[];perimeter=orthogonalPerimeter;" vertex="1" parent="rBN6wQHvt3Dz5fo0-YgQ-114">
          <mxGeometry x="45" y="1318" width="10" height="50" as="geometry" />
        </mxCell>
        <mxCell id="rBN6wQHvt3Dz5fo0-YgQ-119" value="opt" style="shape=umlFrame;whiteSpace=wrap;html=1;fillColor=#e51400;strokeColor=#B20000;fontColor=#ffffff;" vertex="1" parent="rBN6wQHvt3Dz5fo0-YgQ-114">
          <mxGeometry x="-480" y="1298" width="610" height="150" as="geometry" />
        </mxCell>
        <mxCell id="rBN6wQHvt3Dz5fo0-YgQ-120" value="" style="html=1;points=[];perimeter=orthogonalPerimeter;" vertex="1" parent="rBN6wQHvt3Dz5fo0-YgQ-114">
          <mxGeometry x="45" y="1638" width="10" height="50" as="geometry" />
        </mxCell>
        <mxCell id="rBN6wQHvt3Dz5fo0-YgQ-208" value="loop" style="shape=umlFrame;whiteSpace=wrap;html=1;" vertex="1" parent="rBN6wQHvt3Dz5fo0-YgQ-114">
          <mxGeometry x="-300" y="610" width="400" height="610" as="geometry" />
        </mxCell>
        <mxCell id="rBN6wQHvt3Dz5fo0-YgQ-121" value="aniamte" style="shape=umlLifeline;perimeter=lifelinePerimeter;whiteSpace=wrap;html=1;container=1;collapsible=0;recursiveResize=0;outlineConnect=0;" vertex="1" parent="1">
          <mxGeometry x="570" y="80" width="150" height="1560" as="geometry" />
        </mxCell>
        <mxCell id="rBN6wQHvt3Dz5fo0-YgQ-122" value="" style="html=1;points=[];perimeter=orthogonalPerimeter;" vertex="1" parent="rBN6wQHvt3Dz5fo0-YgQ-121">
          <mxGeometry x="70" y="80" width="10" height="390" as="geometry" />
        </mxCell>
        <mxCell id="rBN6wQHvt3Dz5fo0-YgQ-123" value="" style="html=1;points=[];perimeter=orthogonalPerimeter;" vertex="1" parent="rBN6wQHvt3Dz5fo0-YgQ-121">
          <mxGeometry x="70" y="680" width="10" height="40" as="geometry" />
        </mxCell>
        <mxCell id="rBN6wQHvt3Dz5fo0-YgQ-124" value="" style="html=1;points=[];perimeter=orthogonalPerimeter;" vertex="1" parent="rBN6wQHvt3Dz5fo0-YgQ-121">
          <mxGeometry x="70" y="780" width="10" height="430" as="geometry" />
        </mxCell>
        <mxCell id="rBN6wQHvt3Dz5fo0-YgQ-125" value="" style="html=1;points=[];perimeter=orthogonalPerimeter;" vertex="1" parent="rBN6wQHvt3Dz5fo0-YgQ-121">
          <mxGeometry x="75" y="160" width="10" height="20" as="geometry" />
        </mxCell>
        <mxCell id="rBN6wQHvt3Dz5fo0-YgQ-126" value="获取并发任务锁" style="edgeStyle=orthogonalEdgeStyle;html=1;align=left;spacingLeft=2;endArrow=block;rounded=0;entryX=1;entryY=0;" edge="1" parent="rBN6wQHvt3Dz5fo0-YgQ-121" target="rBN6wQHvt3Dz5fo0-YgQ-125">
          <mxGeometry relative="1" as="geometry">
            <mxPoint x="80" y="140" as="sourcePoint" />
            <Array as="points">
              <mxPoint x="110" y="140" />
            </Array>
          </mxGeometry>
        </mxCell>
        <mxCell id="rBN6wQHvt3Dz5fo0-YgQ-127" value="" style="html=1;points=[];perimeter=orthogonalPerimeter;" vertex="1" parent="rBN6wQHvt3Dz5fo0-YgQ-121">
          <mxGeometry x="75" y="220" width="10" height="40" as="geometry" />
        </mxCell>
        <mxCell id="rBN6wQHvt3Dz5fo0-YgQ-128" value="获取锁失败，排队等待合成定时任务" style="edgeStyle=orthogonalEdgeStyle;html=1;align=left;spacingLeft=2;endArrow=block;rounded=0;entryX=1;entryY=0;" edge="1" parent="rBN6wQHvt3Dz5fo0-YgQ-121" target="rBN6wQHvt3Dz5fo0-YgQ-127">
          <mxGeometry relative="1" as="geometry">
            <mxPoint x="80" y="200" as="sourcePoint" />
            <Array as="points">
              <mxPoint x="110" y="200" />
            </Array>
          </mxGeometry>
        </mxCell>
        <mxCell id="rBN6wQHvt3Dz5fo0-YgQ-134" value="" style="html=1;points=[];perimeter=orthogonalPerimeter;" vertex="1" parent="rBN6wQHvt3Dz5fo0-YgQ-121">
          <mxGeometry x="75" y="990" width="10" height="40" as="geometry" />
        </mxCell>
        <mxCell id="rBN6wQHvt3Dz5fo0-YgQ-135" value="生成用户作品gif和webp动图" style="edgeStyle=orthogonalEdgeStyle;html=1;align=left;spacingLeft=2;endArrow=block;rounded=0;entryX=1;entryY=0;" edge="1" parent="rBN6wQHvt3Dz5fo0-YgQ-121" target="rBN6wQHvt3Dz5fo0-YgQ-134">
          <mxGeometry relative="1" as="geometry">
            <mxPoint x="80" y="970" as="sourcePoint" />
            <Array as="points">
              <mxPoint x="110" y="970" />
            </Array>
          </mxGeometry>
        </mxCell>
        <mxCell id="rBN6wQHvt3Dz5fo0-YgQ-137" value="" style="html=1;points=[];perimeter=orthogonalPerimeter;" vertex="1" parent="rBN6wQHvt3Dz5fo0-YgQ-121">
          <mxGeometry x="80" y="1110" width="10" height="40" as="geometry" />
        </mxCell>
        <mxCell id="rBN6wQHvt3Dz5fo0-YgQ-138" value="上传文件，更新缓存为已完成状态" style="edgeStyle=orthogonalEdgeStyle;html=1;align=left;spacingLeft=2;endArrow=block;rounded=0;entryX=1;entryY=0;" edge="1" parent="rBN6wQHvt3Dz5fo0-YgQ-121" target="rBN6wQHvt3Dz5fo0-YgQ-137">
          <mxGeometry relative="1" as="geometry">
            <mxPoint x="85" y="1090" as="sourcePoint" />
            <Array as="points">
              <mxPoint x="115" y="1090" />
            </Array>
          </mxGeometry>
        </mxCell>
        <mxCell id="rBN6wQHvt3Dz5fo0-YgQ-183" value="轮询进度" style="html=1;verticalAlign=bottom;endArrow=block;rounded=0;" edge="1" parent="rBN6wQHvt3Dz5fo0-YgQ-121">
          <mxGeometry relative="1" as="geometry">
            <mxPoint x="-115" y="840" as="sourcePoint" />
            <Array as="points">
              <mxPoint x="-60" y="840" />
            </Array>
            <mxPoint x="70" y="840" as="targetPoint" />
          </mxGeometry>
        </mxCell>
        <mxCell id="rBN6wQHvt3Dz5fo0-YgQ-220" value="" style="html=1;points=[];perimeter=orthogonalPerimeter;" vertex="1" parent="rBN6wQHvt3Dz5fo0-YgQ-121">
          <mxGeometry x="75" y="870" width="10" height="40" as="geometry" />
        </mxCell>
        <mxCell id="rBN6wQHvt3Dz5fo0-YgQ-221" value="添加水印" style="edgeStyle=orthogonalEdgeStyle;html=1;align=left;spacingLeft=2;endArrow=block;rounded=0;entryX=1;entryY=0;" edge="1" target="rBN6wQHvt3Dz5fo0-YgQ-220" parent="rBN6wQHvt3Dz5fo0-YgQ-121">
          <mxGeometry relative="1" as="geometry">
            <mxPoint x="80" y="850" as="sourcePoint" />
            <Array as="points">
              <mxPoint x="110" y="850" />
            </Array>
          </mxGeometry>
        </mxCell>
        <mxCell id="rBN6wQHvt3Dz5fo0-YgQ-139" value="" style="shape=umlLifeline;participant=umlActor;perimeter=lifelinePerimeter;whiteSpace=wrap;html=1;container=1;collapsible=0;recursiveResize=0;verticalAlign=top;spacingTop=36;outlineConnect=0;" vertex="1" parent="1">
          <mxGeometry y="-290" width="20" height="2500" as="geometry" />
        </mxCell>
        <mxCell id="rBN6wQHvt3Dz5fo0-YgQ-140" value="" style="html=1;points=[];perimeter=orthogonalPerimeter;" vertex="1" parent="rBN6wQHvt3Dz5fo0-YgQ-139">
          <mxGeometry x="5" y="70" width="10" height="2230" as="geometry" />
        </mxCell>
        <mxCell id="rBN6wQHvt3Dz5fo0-YgQ-142" value="用户选择照片" style="edgeStyle=orthogonalEdgeStyle;html=1;align=left;spacingLeft=2;endArrow=block;rounded=0;entryX=1;entryY=0;" edge="1" parent="rBN6wQHvt3Dz5fo0-YgQ-139">
          <mxGeometry relative="1" as="geometry">
            <mxPoint x="10" y="100" as="sourcePoint" />
            <Array as="points">
              <mxPoint x="40" y="100" />
            </Array>
            <mxPoint x="15" y="120" as="targetPoint" />
          </mxGeometry>
        </mxCell>
        <mxCell id="rBN6wQHvt3Dz5fo0-YgQ-143" value="AI-server" style="shape=umlLifeline;perimeter=lifelinePerimeter;whiteSpace=wrap;html=1;container=1;collapsible=0;recursiveResize=0;outlineConnect=0;" vertex="1" parent="1">
          <mxGeometry x="850" y="80" width="150" height="1560" as="geometry" />
        </mxCell>
        <mxCell id="rBN6wQHvt3Dz5fo0-YgQ-145" value="" style="html=1;points=[];perimeter=orthogonalPerimeter;" vertex="1" parent="rBN6wQHvt3Dz5fo0-YgQ-143">
          <mxGeometry x="60" y="340" width="10" height="40" as="geometry" />
        </mxCell>
        <mxCell id="rBN6wQHvt3Dz5fo0-YgQ-204" style="edgeStyle=orthogonalEdgeStyle;rounded=0;orthogonalLoop=1;jettySize=auto;html=1;" edge="1" parent="rBN6wQHvt3Dz5fo0-YgQ-143" source="rBN6wQHvt3Dz5fo0-YgQ-150" target="rBN6wQHvt3Dz5fo0-YgQ-143">
          <mxGeometry relative="1" as="geometry">
            <Array as="points">
              <mxPoint x="80" y="30" />
              <mxPoint x="80" y="30" />
            </Array>
          </mxGeometry>
        </mxCell>
        <mxCell id="rBN6wQHvt3Dz5fo0-YgQ-150" value="" style="html=1;points=[];perimeter=orthogonalPerimeter;" vertex="1" parent="rBN6wQHvt3Dz5fo0-YgQ-143">
          <mxGeometry x="70" y="310" width="10" height="500" as="geometry" />
        </mxCell>
        <mxCell id="rBN6wQHvt3Dz5fo0-YgQ-153" value="" style="html=1;points=[];perimeter=orthogonalPerimeter;" vertex="1" parent="rBN6wQHvt3Dz5fo0-YgQ-143">
          <mxGeometry x="75" y="720" width="10" height="40" as="geometry" />
        </mxCell>
        <mxCell id="rBN6wQHvt3Dz5fo0-YgQ-154" value="合成" style="edgeStyle=orthogonalEdgeStyle;html=1;align=left;spacingLeft=2;endArrow=block;rounded=0;entryX=1;entryY=0;" edge="1" parent="rBN6wQHvt3Dz5fo0-YgQ-143" target="rBN6wQHvt3Dz5fo0-YgQ-153">
          <mxGeometry relative="1" as="geometry">
            <mxPoint x="80" y="700" as="sourcePoint" />
            <Array as="points">
              <mxPoint x="110" y="700" />
            </Array>
          </mxGeometry>
        </mxCell>
        <mxCell id="rBN6wQHvt3Dz5fo0-YgQ-219" value="" style="endArrow=none;dashed=1;html=1;dashPattern=1 3;strokeWidth=2;rounded=0;" edge="1" parent="rBN6wQHvt3Dz5fo0-YgQ-143">
          <mxGeometry width="50" height="50" relative="1" as="geometry">
            <mxPoint y="380" as="sourcePoint" />
            <mxPoint x="-6.400000000000091" y="460" as="targetPoint" />
          </mxGeometry>
        </mxCell>
        <mxCell id="rBN6wQHvt3Dz5fo0-YgQ-210" value="从提交请求到回调通知开始合成间隔时间：10ms" style="shape=note2;boundedLbl=1;whiteSpace=wrap;html=1;size=25;verticalAlign=top;align=center;fillColor=#ffe6cc;strokeColor=#d79b00;" vertex="1" parent="rBN6wQHvt3Dz5fo0-YgQ-143">
          <mxGeometry x="-80" y="460" width="140" height="90" as="geometry" />
        </mxCell>
        <mxCell id="rBN6wQHvt3Dz5fo0-YgQ-160" value="调用合成接口" style="html=1;verticalAlign=bottom;endArrow=block;entryX=0;entryY=0;rounded=0;" edge="1" parent="1" source="rBN6wQHvt3Dz5fo0-YgQ-103" target="rBN6wQHvt3Dz5fo0-YgQ-115">
          <mxGeometry relative="1" as="geometry">
            <mxPoint x="365" y="190" as="sourcePoint" />
          </mxGeometry>
        </mxCell>
        <mxCell id="rBN6wQHvt3Dz5fo0-YgQ-161" value="返回合成id" style="html=1;verticalAlign=bottom;endArrow=open;dashed=1;endSize=8;exitX=0;exitY=0.95;rounded=0;" edge="1" parent="1" source="rBN6wQHvt3Dz5fo0-YgQ-115" target="rBN6wQHvt3Dz5fo0-YgQ-103">
          <mxGeometry relative="1" as="geometry">
            <mxPoint x="260" y="684" as="targetPoint" />
          </mxGeometry>
        </mxCell>
        <mxCell id="rBN6wQHvt3Dz5fo0-YgQ-162" value="调用合成服务" style="html=1;verticalAlign=bottom;endArrow=block;entryX=0;entryY=0;rounded=0;" edge="1" parent="1" source="rBN6wQHvt3Dz5fo0-YgQ-115" target="rBN6wQHvt3Dz5fo0-YgQ-122">
          <mxGeometry relative="1" as="geometry">
            <mxPoint x="545" y="210" as="sourcePoint" />
          </mxGeometry>
        </mxCell>
        <mxCell id="rBN6wQHvt3Dz5fo0-YgQ-163" value="返回合成id" style="html=1;verticalAlign=bottom;endArrow=open;dashed=1;endSize=8;exitX=0;exitY=0.95;rounded=0;" edge="1" parent="1" source="rBN6wQHvt3Dz5fo0-YgQ-122" target="rBN6wQHvt3Dz5fo0-YgQ-115">
          <mxGeometry relative="1" as="geometry">
            <mxPoint x="545" y="286" as="targetPoint" />
          </mxGeometry>
        </mxCell>
        <mxCell id="rBN6wQHvt3Dz5fo0-YgQ-166" value="普通活照片合成" style="html=1;verticalAlign=bottom;endArrow=block;entryX=0;entryY=0;rounded=0;" edge="1" parent="1" source="rBN6wQHvt3Dz5fo0-YgQ-122" target="rBN6wQHvt3Dz5fo0-YgQ-145">
          <mxGeometry x="-0.0769" y="10" relative="1" as="geometry">
            <mxPoint x="715" y="470" as="sourcePoint" />
            <mxPoint as="offset" />
          </mxGeometry>
        </mxCell>
        <mxCell id="rBN6wQHvt3Dz5fo0-YgQ-167" value="http return" style="html=1;verticalAlign=bottom;endArrow=open;dashed=1;endSize=8;exitX=0;exitY=0.95;rounded=0;" edge="1" parent="1" source="rBN6wQHvt3Dz5fo0-YgQ-145" target="rBN6wQHvt3Dz5fo0-YgQ-122">
          <mxGeometry relative="1" as="geometry">
            <mxPoint x="715" y="546" as="targetPoint" />
          </mxGeometry>
        </mxCell>
        <mxCell id="rBN6wQHvt3Dz5fo0-YgQ-170" value="每3s调用轮询接口，查询合成状态" style="html=1;verticalAlign=bottom;endArrow=block;entryX=0;entryY=0;rounded=0;" edge="1" parent="1" source="rBN6wQHvt3Dz5fo0-YgQ-104" target="rBN6wQHvt3Dz5fo0-YgQ-116">
          <mxGeometry relative="1" as="geometry">
            <mxPoint x="365" y="750" as="sourcePoint" />
          </mxGeometry>
        </mxCell>
        <mxCell id="rBN6wQHvt3Dz5fo0-YgQ-171" value="返回活照片合成作品下载地址" style="html=1;verticalAlign=bottom;endArrow=open;dashed=1;endSize=8;exitX=0;exitY=0.95;rounded=0;" edge="1" parent="1" source="rBN6wQHvt3Dz5fo0-YgQ-116" target="rBN6wQHvt3Dz5fo0-YgQ-104">
          <mxGeometry relative="1" as="geometry">
            <mxPoint x="365" y="826" as="targetPoint" />
          </mxGeometry>
        </mxCell>
        <mxCell id="rBN6wQHvt3Dz5fo0-YgQ-172" value="回调通知开始合成" style="html=1;verticalAlign=bottom;endArrow=block;entryX=1;entryY=0;rounded=0;" edge="1" parent="1">
          <mxGeometry relative="1" as="geometry">
            <mxPoint x="920" y="771" as="sourcePoint" />
            <mxPoint x="650" y="771" as="targetPoint" />
          </mxGeometry>
        </mxCell>
        <mxCell id="rBN6wQHvt3Dz5fo0-YgQ-173" value="回调通知合成完成" style="html=1;verticalAlign=bottom;endArrow=block;entryX=1;entryY=0;rounded=0;" edge="1" parent="1" source="rBN6wQHvt3Dz5fo0-YgQ-150" target="rBN6wQHvt3Dz5fo0-YgQ-124">
          <mxGeometry relative="1" as="geometry">
            <mxPoint x="710" y="860" as="sourcePoint" />
          </mxGeometry>
        </mxCell>
        <mxCell id="rBN6wQHvt3Dz5fo0-YgQ-174" value="return" style="html=1;verticalAlign=bottom;endArrow=open;dashed=1;endSize=8;rounded=0;" edge="1" parent="1" target="rBN6wQHvt3Dz5fo0-YgQ-115">
          <mxGeometry relative="1" as="geometry">
            <mxPoint x="640" y="330" as="sourcePoint" />
            <mxPoint x="560" y="330" as="targetPoint" />
          </mxGeometry>
        </mxCell>
        <mxCell id="rBN6wQHvt3Dz5fo0-YgQ-175" value="opt" style="shape=umlFrame;whiteSpace=wrap;html=1;" vertex="1" parent="1">
          <mxGeometry x="500" y="270" width="400" height="80" as="geometry" />
        </mxCell>
        <mxCell id="rBN6wQHvt3Dz5fo0-YgQ-185" value="点击import导入" style="html=1;verticalAlign=bottom;startArrow=oval;endArrow=block;startSize=8;rounded=0;" edge="1" parent="1" target="rBN6wQHvt3Dz5fo0-YgQ-103">
          <mxGeometry relative="1" as="geometry">
            <mxPoint x="15" y="-150" as="sourcePoint" />
            <mxPoint x="180" y="-150" as="targetPoint" />
          </mxGeometry>
        </mxCell>
        <mxCell id="rBN6wQHvt3Dz5fo0-YgQ-186" value="调用downloadFile接口下载合成视频" style="html=1;verticalAlign=bottom;endArrow=block;entryX=0;entryY=0;rounded=0;" edge="1" parent="1" source="rBN6wQHvt3Dz5fo0-YgQ-108" target="rBN6wQHvt3Dz5fo0-YgQ-117">
          <mxGeometry relative="1" as="geometry">
            <mxPoint x="375" y="1438" as="sourcePoint" />
          </mxGeometry>
        </mxCell>
        <mxCell id="rBN6wQHvt3Dz5fo0-YgQ-187" value="return" style="html=1;verticalAlign=bottom;endArrow=open;dashed=1;endSize=8;exitX=0;exitY=0.95;rounded=0;" edge="1" parent="1" source="rBN6wQHvt3Dz5fo0-YgQ-117" target="rBN6wQHvt3Dz5fo0-YgQ-108">
          <mxGeometry relative="1" as="geometry">
            <mxPoint x="375" y="1514" as="targetPoint" />
          </mxGeometry>
        </mxCell>
        <mxCell id="rBN6wQHvt3Dz5fo0-YgQ-188" value="播放合成视频" style="html=1;verticalAlign=bottom;endArrow=open;dashed=1;endSize=8;rounded=0;" edge="1" parent="1" source="rBN6wQHvt3Dz5fo0-YgQ-108">
          <mxGeometry relative="1" as="geometry">
            <mxPoint x="135" y="1518" as="sourcePoint" />
            <mxPoint x="15" y="1648" as="targetPoint" />
            <Array as="points">
              <mxPoint x="80" y="1648" />
            </Array>
          </mxGeometry>
        </mxCell>
        <mxCell id="rBN6wQHvt3Dz5fo0-YgQ-189" value="轮询结果为超时状态" style="html=1;verticalAlign=bottom;endArrow=open;dashed=1;endSize=8;rounded=0;" edge="1" parent="1" source="rBN6wQHvt3Dz5fo0-YgQ-118">
          <mxGeometry relative="1" as="geometry">
            <mxPoint x="350" y="1408" as="sourcePoint" />
            <mxPoint x="235" y="1423" as="targetPoint" />
          </mxGeometry>
        </mxCell>
        <mxCell id="rBN6wQHvt3Dz5fo0-YgQ-190" value="报错：&lt;span style=&quot;color: rgb(102, 102, 102); font-family: Helvetica, &amp;quot;Open Sans&amp;quot;, &amp;quot;PingFang SC&amp;quot;, &amp;quot;Microsoft YaHei&amp;quot;, sans-serif; font-size: 14px; letter-spacing: 0.2px; text-align: left;&quot;&gt;Opps! Please try again.&lt;/span&gt;" style="html=1;verticalAlign=bottom;endArrow=open;dashed=1;endSize=8;rounded=0;" edge="1" parent="1">
          <mxGeometry relative="1" as="geometry">
            <mxPoint x="225" y="1448" as="sourcePoint" />
            <mxPoint x="15" y="1448" as="targetPoint" />
            <Array as="points">
              <mxPoint x="200" y="1448" />
            </Array>
          </mxGeometry>
        </mxCell>
        <mxCell id="rBN6wQHvt3Dz5fo0-YgQ-191" value="下载失败" style="html=1;verticalAlign=bottom;endArrow=block;entryX=0;entryY=0;rounded=0;" edge="1" parent="1" source="rBN6wQHvt3Dz5fo0-YgQ-113" target="rBN6wQHvt3Dz5fo0-YgQ-120">
          <mxGeometry relative="1" as="geometry">
            <mxPoint x="375" y="1718" as="sourcePoint" />
          </mxGeometry>
        </mxCell>
        <mxCell id="rBN6wQHvt3Dz5fo0-YgQ-192" value="报错" style="html=1;verticalAlign=bottom;endArrow=open;dashed=1;endSize=8;rounded=0;" edge="1" parent="1" source="rBN6wQHvt3Dz5fo0-YgQ-113">
          <mxGeometry relative="1" as="geometry">
            <mxPoint x="180" y="1738" as="sourcePoint" />
            <mxPoint x="15" y="1748" as="targetPoint" />
          </mxGeometry>
        </mxCell>
        <mxCell id="rBN6wQHvt3Dz5fo0-YgQ-193" value="&lt;pre style=&quot;margin-top: 0px; margin-bottom: 0px; padding: 0px; box-sizing: border-box; font-family: Helvetica, &amp;quot;Open Sans&amp;quot;, &amp;quot;PingFang SC&amp;quot;, &amp;quot;Microsoft YaHei&amp;quot;, sans-serif; overflow-wrap: break-word; word-break: break-word; font-size: 14px; color: rgb(102, 102, 102); letter-spacing: 0.2px; line-height: 18px; text-align: left; background-color: rgb(255, 255, 255);&quot; class=&quot;&quot; data-v-5b366386=&quot;&quot;&gt;Unable to animate this image.&lt;/pre&gt;&lt;pre style=&quot;margin-top: 0px; margin-bottom: 0px; padding: 0px; box-sizing: border-box; font-family: Helvetica, &amp;quot;Open Sans&amp;quot;, &amp;quot;PingFang SC&amp;quot;, &amp;quot;Microsoft YaHei&amp;quot;, sans-serif; overflow-wrap: break-word; word-break: break-word; font-size: 14px; color: rgb(102, 102, 102); letter-spacing: 0.2px; line-height: 18px; text-align: left; background-color: rgb(255, 255, 255);&quot; class=&quot;&quot; data-v-5b366386=&quot;&quot;&gt;Please try again later or try other templates&lt;/pre&gt;" style="shape=note2;boundedLbl=1;whiteSpace=wrap;html=1;size=25;verticalAlign=top;align=center;fillColor=#ffe6cc;strokeColor=#d79b00;" vertex="1" parent="1">
          <mxGeometry x="20" y="1818" width="310" height="90" as="geometry" />
        </mxCell>
        <mxCell id="rBN6wQHvt3Dz5fo0-YgQ-194" value="" style="html=1;verticalAlign=bottom;labelBackgroundColor=none;endArrow=block;endFill=1;dashed=1;rounded=0;exitX=0.227;exitY=0.014;exitDx=0;exitDy=0;exitPerimeter=0;" edge="1" parent="1" source="rBN6wQHvt3Dz5fo0-YgQ-193">
          <mxGeometry width="160" relative="1" as="geometry">
            <mxPoint x="70" y="1798" as="sourcePoint" />
            <mxPoint x="130" y="1748" as="targetPoint" />
          </mxGeometry>
        </mxCell>
        <mxCell id="rBN6wQHvt3Dz5fo0-YgQ-195" value="opt" style="shape=umlFrame;whiteSpace=wrap;html=1;fillColor=#e51400;strokeColor=#B20000;fontColor=#ffffff;" vertex="1" parent="1">
          <mxGeometry x="-80" y="1688" width="610" height="240" as="geometry" />
        </mxCell>
        <mxCell id="rBN6wQHvt3Dz5fo0-YgQ-196" value="并发1路：59s&lt;br&gt;并发2路：84s&lt;br&gt;并发3路：112s" style="shape=note2;boundedLbl=1;whiteSpace=wrap;html=1;size=25;verticalAlign=top;align=center;fontFamily=Helvetica;fontSize=12;strokeColor=#d79b00;fillColor=#ffe6cc;" vertex="1" parent="1">
          <mxGeometry x="1050" y="780" width="290" height="80" as="geometry" />
        </mxCell>
        <mxCell id="rBN6wQHvt3Dz5fo0-YgQ-197" value="线上阿卡贝拉模板拼图4宫格，&lt;br&gt;调用底层发起合成到接收合成完成间隔时间" style="resizeWidth=1;part=1;strokeColor=none;fillColor=none;align=left;spacingLeft=5;fontFamily=Helvetica;fontSize=12;fontColor=default;html=1;" vertex="1" parent="rBN6wQHvt3Dz5fo0-YgQ-196">
          <mxGeometry width="290" height="25" relative="1" as="geometry" />
        </mxCell>
        <mxCell id="rBN6wQHvt3Dz5fo0-YgQ-198" value="前端埋点接口平均耗时3~4s" style="shape=note2;boundedLbl=1;whiteSpace=wrap;html=1;size=25;verticalAlign=top;align=center;fillColor=#ffe6cc;strokeColor=#d79b00;" vertex="1" parent="1">
          <mxGeometry x="270" y="210" width="120" height="60" as="geometry" />
        </mxCell>
        <mxCell id="rBN6wQHvt3Dz5fo0-YgQ-199" value="" style="endArrow=none;dashed=1;html=1;dashPattern=1 3;strokeWidth=2;rounded=0;" edge="1" parent="1" source="rBN6wQHvt3Dz5fo0-YgQ-198" target="rBN6wQHvt3Dz5fo0-YgQ-103">
          <mxGeometry width="50" height="50" relative="1" as="geometry">
            <mxPoint x="320" y="200" as="sourcePoint" />
            <mxPoint x="330" y="150" as="targetPoint" />
          </mxGeometry>
        </mxCell>
        <mxCell id="rBN6wQHvt3Dz5fo0-YgQ-200" value="总计平均下载耗时7s&lt;br&gt;去除国内用户下载平均耗时1.7s" style="shape=note2;boundedLbl=1;whiteSpace=wrap;html=1;size=25;verticalAlign=top;align=center;fillColor=#ffe6cc;strokeColor=#d79b00;" vertex="1" parent="1">
          <mxGeometry x="-220" y="1568" width="180" height="80" as="geometry" />
        </mxCell>
        <mxCell id="rBN6wQHvt3Dz5fo0-YgQ-201" value="" style="endArrow=none;dashed=1;html=1;dashPattern=1 3;strokeWidth=2;rounded=0;exitX=1;exitY=0.525;exitDx=0;exitDy=0;exitPerimeter=0;" edge="1" parent="1" source="rBN6wQHvt3Dz5fo0-YgQ-200">
          <mxGeometry width="50" height="50" relative="1" as="geometry">
            <mxPoint x="-40" y="1648" as="sourcePoint" />
            <mxPoint x="70" y="1648" as="targetPoint" />
          </mxGeometry>
        </mxCell>
        <mxCell id="rBN6wQHvt3Dz5fo0-YgQ-202" value="" style="endArrow=none;dashed=1;html=1;dashPattern=1 3;strokeWidth=2;rounded=0;fontColor=#FF6666;exitX=0.5;exitY=0.75;exitDx=0;exitDy=0;exitPerimeter=0;" edge="1" parent="1" source="rBN6wQHvt3Dz5fo0-YgQ-153" target="rBN6wQHvt3Dz5fo0-YgQ-196">
          <mxGeometry width="50" height="50" relative="1" as="geometry">
            <mxPoint x="990" y="770" as="sourcePoint" />
            <mxPoint x="1040" y="720" as="targetPoint" />
          </mxGeometry>
        </mxCell>
        <mxCell id="rBN6wQHvt3Dz5fo0-YgQ-209" value="进度100%，获取合成视频地址" style="html=1;verticalAlign=bottom;endArrow=block;rounded=0;" edge="1" parent="1">
          <mxGeometry width="80" relative="1" as="geometry">
            <mxPoint x="455" y="1243" as="sourcePoint" />
            <mxPoint x="644.4999999999995" y="1243" as="targetPoint" />
            <Array as="points">
              <mxPoint x="590" y="1243" />
            </Array>
          </mxGeometry>
        </mxCell>
        <mxCell id="rBN6wQHvt3Dz5fo0-YgQ-211" value="" style="endArrow=none;dashed=1;html=1;dashPattern=1 3;strokeWidth=2;rounded=0;entryX=0.571;entryY=1.008;entryDx=0;entryDy=0;entryPerimeter=0;" edge="1" parent="1" target="rBN6wQHvt3Dz5fo0-YgQ-210">
          <mxGeometry width="50" height="50" relative="1" as="geometry">
            <mxPoint x="850" y="770" as="sourcePoint" />
            <mxPoint x="1020" y="560" as="targetPoint" />
          </mxGeometry>
        </mxCell>
        <mxCell id="rBN6wQHvt3Dz5fo0-YgQ-213" value="" style="endArrow=none;dashed=1;html=1;dashPattern=1 3;strokeWidth=2;rounded=0;exitX=0;exitY=0;exitDx=120;exitDy=25;exitPerimeter=0;entryX=0.5;entryY=0.578;entryDx=0;entryDy=0;entryPerimeter=0;" edge="1" parent="1" source="rBN6wQHvt3Dz5fo0-YgQ-212" target="rBN6wQHvt3Dz5fo0-YgQ-115">
          <mxGeometry width="50" height="50" relative="1" as="geometry">
            <mxPoint x="390" y="450" as="sourcePoint" />
            <mxPoint x="440" y="400" as="targetPoint" />
          </mxGeometry>
        </mxCell>
        <mxCell id="rBN6wQHvt3Dz5fo0-YgQ-214" value="app端耗时？？？，等待明天查询埋点" style="shape=note2;boundedLbl=1;whiteSpace=wrap;html=1;size=25;verticalAlign=top;align=center;fillColor=#ffe6cc;strokeColor=#d79b00;" vertex="1" parent="1">
          <mxGeometry x="570" y="-140" width="120" height="60" as="geometry" />
        </mxCell>
        <mxCell id="rBN6wQHvt3Dz5fo0-YgQ-215" value="app" style="shape=umlFrame;whiteSpace=wrap;html=1;" vertex="1" parent="1">
          <mxGeometry x="-110" y="-225" width="610" height="295" as="geometry" />
        </mxCell>
        <mxCell id="rBN6wQHvt3Dz5fo0-YgQ-216" value="" style="endArrow=none;dashed=1;html=1;dashPattern=1 3;strokeWidth=2;rounded=0;" edge="1" parent="1" target="rBN6wQHvt3Dz5fo0-YgQ-214">
          <mxGeometry width="50" height="50" relative="1" as="geometry">
            <mxPoint x="500" y="-80" as="sourcePoint" />
            <mxPoint x="550" y="-130" as="targetPoint" />
          </mxGeometry>
        </mxCell>
        <mxCell id="rBN6wQHvt3Dz5fo0-YgQ-217" value="活照片合成接口23ms" style="shape=note2;boundedLbl=1;whiteSpace=wrap;html=1;size=25;verticalAlign=top;align=center;fillColor=#ffe6cc;strokeColor=#d79b00;" vertex="1" parent="1">
          <mxGeometry x="1050" y="390" width="120" height="60" as="geometry" />
        </mxCell>
        <mxCell id="rBN6wQHvt3Dz5fo0-YgQ-218" value="" style="endArrow=none;dashed=1;html=1;dashPattern=1 3;strokeWidth=2;rounded=0;entryX=0.01;entryY=0.283;entryDx=0;entryDy=0;entryPerimeter=0;" edge="1" parent="1" source="rBN6wQHvt3Dz5fo0-YgQ-150" target="rBN6wQHvt3Dz5fo0-YgQ-217">
          <mxGeometry width="50" height="50" relative="1" as="geometry">
            <mxPoint x="960" y="460" as="sourcePoint" />
            <mxPoint x="1010" y="410" as="targetPoint" />
          </mxGeometry>
        </mxCell>
        <mxCell id="rBN6wQHvt3Dz5fo0-YgQ-222" value="耗时2s" style="shape=note2;boundedLbl=1;whiteSpace=wrap;html=1;size=25;verticalAlign=top;align=center;fillColor=#ffe6cc;strokeColor=#d79b00;" vertex="1" parent="1">
          <mxGeometry x="770" y="930" width="120" height="60" as="geometry" />
        </mxCell>
        <mxCell id="rBN6wQHvt3Dz5fo0-YgQ-224" value="" style="endArrow=none;dashed=1;html=1;dashPattern=1 3;strokeWidth=2;rounded=0;entryX=0;entryY=0.5;entryDx=0;entryDy=0;entryPerimeter=0;" edge="1" parent="1" source="rBN6wQHvt3Dz5fo0-YgQ-220" target="rBN6wQHvt3Dz5fo0-YgQ-222">
          <mxGeometry width="50" height="50" relative="1" as="geometry">
            <mxPoint x="690" y="950" as="sourcePoint" />
            <mxPoint x="750" y="960" as="targetPoint" />
          </mxGeometry>
        </mxCell>
        <mxCell id="rBN6wQHvt3Dz5fo0-YgQ-225" value="" style="endArrow=none;dashed=1;html=1;dashPattern=1 3;strokeWidth=2;rounded=0;exitX=0.913;exitY=0.475;exitDx=0;exitDy=0;exitPerimeter=0;" edge="1" parent="1" source="rBN6wQHvt3Dz5fo0-YgQ-134" target="rBN6wQHvt3Dz5fo0-YgQ-223">
          <mxGeometry width="50" height="50" relative="1" as="geometry">
            <mxPoint x="720" y="1130" as="sourcePoint" />
            <mxPoint x="770" y="1080" as="targetPoint" />
          </mxGeometry>
        </mxCell>
        <mxCell id="rBN6wQHvt3Dz5fo0-YgQ-223" value="耗时2" style="shape=note2;boundedLbl=1;whiteSpace=wrap;html=1;size=25;verticalAlign=top;align=center;fillColor=#ffe6cc;strokeColor=#d79b00;" vertex="1" parent="1">
          <mxGeometry x="780" y="1070" width="120" height="60" as="geometry" />
        </mxCell>
      </root>
    </mxGraphModel>
  </diagram>
</mxfile>
